<svg width="230" height="52" viewBox="0 0 230 52" fill="none" xmlns="http://www.w3.org/2000/svg">
<path d="M74.4769 15.125C75.6844 15.1251 76.8073 15.2943 77.8454 15.6333C78.8837 15.9723 79.8092 16.4704 80.6214 17.1273C81.4336 17.777 82.1011 18.5751 82.6237 19.5213C83.1534 20.4607 83.5004 21.5347 83.6629 22.7425H79.7004C79.5874 22.0927 79.3777 21.5168 79.074 21.0154C78.7704 20.5071 78.3927 20.0767 77.9409 19.7237C77.4888 19.3705 76.9726 19.1055 76.3934 18.9289C75.8215 18.7454 75.2038 18.6537 74.5401 18.6537C73.3605 18.6537 72.3142 18.949 71.4031 19.5424C70.492 20.1286 69.7788 20.9919 69.2632 22.129C68.7478 23.259 68.4895 24.6399 68.4895 26.2712C68.4895 27.9309 68.7476 29.3297 69.2632 30.4668C69.7858 31.5967 70.4992 32.4516 71.4031 33.0308C72.3141 33.6028 73.3565 33.8886 74.5287 33.8887C75.1784 33.8887 75.7864 33.804 76.3514 33.6345C76.9234 33.458 77.4355 33.1998 77.8875 32.8608C78.3466 32.5218 78.7324 32.1056 79.0432 31.6112C79.3611 31.1168 79.5803 30.5505 79.7004 29.9148L83.6629 29.9375C83.5145 30.9685 83.1925 31.9359 82.6982 32.8398C82.2108 33.7439 81.5711 34.5416 80.7801 35.2338C79.989 35.9189 79.0635 36.4559 78.004 36.8444C76.9448 37.2257 75.7692 37.4173 74.4769 37.4174C72.5698 37.4174 70.8674 36.9746 69.37 36.0917C67.8729 35.2089 66.6933 33.9349 65.8316 32.2684C64.9699 30.6015 64.5383 28.602 64.5383 26.2712C64.5383 23.9332 64.9725 21.9339 65.8413 20.274C66.7101 18.6071 67.8936 17.332 69.3911 16.4491C70.8884 15.5663 72.5841 15.125 74.4769 15.125Z" fill="white"/>
<path fill-rule="evenodd" clip-rule="evenodd" d="M16.9945 15.4212C18.5623 15.4213 19.8655 15.6682 20.9036 16.1626C21.9487 16.6498 22.7286 17.3176 23.2442 18.1649C23.7669 19.0125 24.0293 19.9741 24.0293 21.0477C24.0292 21.9301 23.8597 22.6855 23.521 23.3139C23.182 23.9354 22.7254 24.4405 22.1533 24.829C21.5814 25.2173 20.9427 25.4963 20.2367 25.6658V25.8779C21.0064 25.9203 21.745 26.1577 22.4511 26.5885C23.1642 27.0122 23.7473 27.6133 24.1993 28.39C24.651 29.1669 24.8759 30.1066 24.8759 31.2082C24.8758 32.331 24.6039 33.3414 24.0601 34.2383C23.5162 35.1279 22.6973 35.8303 21.6029 36.3458C20.5081 36.8615 19.1303 37.1196 17.4704 37.1196H8.6875V15.4212H16.9945ZM12.6176 33.8353H16.8456C18.2724 33.8353 19.3006 33.5633 19.9292 33.0195C20.5647 32.4686 20.8826 31.7622 20.8826 30.9006C20.8826 30.2578 20.7229 29.6778 20.4051 29.1622C20.0873 28.6398 19.6346 28.2301 19.0486 27.9336C18.4625 27.6301 17.7628 27.4787 16.9508 27.4787H12.6176V33.8353ZM12.6176 24.6493H16.5073C17.1851 24.6492 17.796 24.5257 18.3397 24.2786C18.8835 24.0243 19.3109 23.6677 19.6217 23.2087C19.9394 22.7426 20.0975 22.1916 20.0975 21.556C20.0975 20.7156 19.8019 20.0231 19.2089 19.4792C18.6227 18.9354 17.7498 18.6634 16.5915 18.6634H12.6176V24.6493Z" fill="white"/>
<path d="M31.9252 33.8239H41.4819V37.1196H27.9951V15.4212H31.9252V33.8239Z" fill="white"/>
<path fill-rule="evenodd" clip-rule="evenodd" d="M63.546 37.1196H59.3504L57.5537 31.7698H49.3939L47.6004 37.1196H43.4048L51.0434 15.4212H55.8962L63.546 37.1196ZM50.4542 28.6118H56.4918L53.5556 19.871H53.3856L50.4542 28.6118Z" fill="white"/>
<path d="M90.8903 25.3906H91.1558L99.6214 15.4212H104.421L96.0296 25.1575L104.495 37.1196H99.7687L93.2956 27.817L90.8903 30.6562V37.1196H86.9602V15.4212H90.8903V25.3906Z" fill="white"/>
<path d="M128.457 18.7168H118.485V24.6072H127.503V27.9028H118.485V37.1196H114.555V15.4212H128.457V18.7168Z" fill="white"/>
<path fill-rule="evenodd" clip-rule="evenodd" d="M139.87 15.4212C141.537 15.4212 142.935 15.7113 144.065 16.2904C145.202 16.8695 146.06 17.6815 146.639 18.7266C147.225 19.7647 147.52 20.9763 147.52 22.3605C147.52 23.7519 147.223 24.9605 146.629 25.9847C146.043 27.0017 145.177 27.7884 144.033 28.3463C143.899 28.411 143.76 28.4705 143.619 28.5276L148.314 37.1196H143.928L139.663 29.1735H135.663V37.1196H131.733V15.4212H139.87ZM135.663 25.9102H139.287C140.262 25.9102 141.06 25.7755 141.681 25.5072C142.302 25.2318 142.762 24.8334 143.059 24.311C143.362 23.7812 143.515 23.1304 143.515 22.3605C143.515 21.5908 143.362 20.9343 143.059 20.3906C142.755 19.8397 142.293 19.4218 141.671 19.1393C141.05 18.8497 140.248 18.7055 139.266 18.7055H135.663V25.9102Z" fill="white"/>
<path d="M155.67 37.1196H151.74V15.4212H155.67V37.1196Z" fill="white"/>
<path fill-rule="evenodd" clip-rule="evenodd" d="M168.318 15.4212C170.472 15.4212 172.323 15.8555 173.87 16.7243C175.424 17.586 176.617 18.8265 177.451 20.444C178.284 22.0612 178.702 23.9958 178.702 26.2485C178.702 28.5085 178.281 30.4513 177.441 32.0758C176.607 33.7002 175.403 34.9477 173.828 35.8165C172.26 36.6852 170.374 37.1195 168.171 37.1196H160.817V15.4212H168.318ZM164.747 33.7187H167.98C169.491 33.7187 170.751 33.4424 171.761 32.8916C172.771 32.3336 173.531 31.5039 174.04 30.4021C174.548 29.2932 174.802 27.9081 174.802 26.2485C174.802 24.5893 174.548 23.2122 174.04 22.1177C173.532 21.0161 172.779 20.1931 171.784 19.6492C170.795 19.0983 169.565 18.8221 168.096 18.8221H164.747V33.7187Z" fill="white"/>
<path fill-rule="evenodd" clip-rule="evenodd" d="M199.709 37.1196H195.513L193.717 31.7698H185.557L183.763 37.1196H179.568L187.206 15.4212H192.059L199.709 37.1196ZM186.617 28.6118H192.655L189.719 19.871H189.549L186.617 28.6118Z" fill="white"/>
<path d="M208.021 25.02H208.233L213.541 15.4212H217.981L210.086 29.0246V37.1196H206.166V29.0246L198.273 15.4212H202.713L208.021 25.02Z" fill="white"/>
</svg>
